<svg width="64" height="64" viewBox="0 0 64 64" fill="none" xmlns="http://www.w3.org/2000/svg" role="img" aria-labelledby="title desc">
  <title id="title">Shop Local icon</title>
  <desc id="desc">A storefront shopping bag with a location pin.</desc>
  <rect width="64" height="64" rx="16" fill="#0F1C2E"/>
  <path d="M15 27.5L22.5 17H41.5L49 27.5V31H15V27.5Z" fill="#F8FAFC"/>
  <path d="M18.5 31H45.5V47C45.5 49.2091 43.7091 51 41.5 51H22.5C20.2909 51 18.5 49.2091 18.5 47V31Z" fill="#F8FAFC"/>
  <path d="M25.5 35C25.5 38.5899 28.4101 41.5 32 41.5C35.5899 41.5 38.5 38.5899 38.5 35" stroke="#B91C1C" stroke-width="3.5" stroke-linecap="round"/>
  <path d="M25 17L21.5 27.5" stroke="#B91C1C" stroke-width="3.5" stroke-linecap="round"/>
  <path d="M39 17L42.5 27.5" stroke="#B91C1C" stroke-width="3.5" stroke-linecap="round"/>
  <path d="M32 9C26.7533 9 22.5 13.2533 22.5 18.5C22.5 25.625 32 33 32 33C32 33 41.5 25.625 41.5 18.5C41.5 13.2533 37.2467 9 32 9Z" fill="#B91C1C"/>
  <circle cx="32" cy="18.5" r="3.5" fill="#F8FAFC"/>
</svg>
